<?xml version="1.0" standalone="no"?>
<!DOCTYPE svg PUBLIC "-//W3C//DTD SVG 20010904//EN"
 "http://www.w3.org/TR/2001/REC-SVG-20010904/DTD/svg10.dtd">
<svg version="1.0" xmlns="http://www.w3.org/2000/svg"
 width="576.000000pt" height="576.000000pt" viewBox="0 0 576.000000 576.000000"
 preserveAspectRatio="xMidYMid meet">
<metadata>
Created by potrace 1.11, written by Peter Selinger 2001-2013
</metadata>
<g transform="translate(0.000000,576.000000) scale(0.100000,-0.100000)"
fill="#000000" stroke="none">
<path d="M3029 5482 c-102 -109 -415 -362 -448 -362 -5 0 -11 -4 -13 -8 -4
-10 -269 -184 -363 -237 -27 -16 -52 -32 -55 -35 -3 -3 -14 -10 -25 -17 -11
-6 -65 -39 -120 -73 -136 -83 -131 -80 -205 -125 -36 -21 -67 -42 -70 -45 -3
-3 -21 -14 -40 -24 -19 -11 -80 -49 -135 -85 -55 -36 -104 -68 -110 -70 -5 -2
-12 -7 -15 -10 -3 -4 -30 -22 -60 -41 -30 -19 -57 -37 -60 -40 -3 -3 -34 -25
-70 -50 -36 -24 -69 -48 -75 -53 -5 -4 -35 -26 -65 -48 -60 -45 -117 -88 -134
-104 -6 -5 -34 -28 -61 -50 -86 -69 -116 -96 -256 -235 -135 -135 -248 -268
-329 -390 -24 -36 -52 -77 -62 -92 -10 -15 -18 -29 -18 -32 0 -3 -13 -28 -30
-56 -16 -28 -30 -57 -30 -65 0 -8 -5 -15 -12 -15 -6 0 -9 -3 -5 -6 3 -3 -2
-20 -12 -37 -32 -58 -104 -283 -116 -362 -3 -16 -7 -41 -10 -55 -20 -92 -27
-399 -11 -493 27 -169 62 -293 122 -432 46 -109 108 -231 125 -245 3 -3 14
-21 25 -40 10 -19 25 -41 32 -49 7 -7 21 -26 30 -40 20 -30 48 -64 80 -97 13
-13 21 -24 19 -24 -6 0 85 -91 139 -140 114 -104 242 -189 385 -258 142 -69
172 -79 394 -128 83 -18 355 -25 465 -12 139 17 325 69 446 125 33 15 61 27
64 28 3 0 21 9 40 20 19 11 37 19 40 20 3 0 16 8 30 16 14 9 53 33 87 53 98
58 235 169 337 271 l93 94 -18 -79 c-43 -185 -126 -327 -280 -482 -53 -53
-110 -103 -128 -112 -17 -9 -31 -21 -31 -26 0 -6 -3 -9 -7 -8 -5 1 -27 -10
-51 -25 -109 -70 -255 -127 -406 -157 l-81 -16 55 -40 c76 -55 212 -110 323
-129 145 -26 194 -29 397 -29 236 1 292 5 525 39 142 21 350 73 524 131 140
47 432 183 461 214 3 3 26 19 52 35 27 17 48 33 48 38 0 4 6 7 14 7 8 0 16 3
18 8 2 4 24 25 51 46 50 41 52 50 9 52 -171 9 -277 35 -406 100 -90 45 -125
71 -206 153 -117 118 -188 257 -220 428 -5 32 -12 68 -14 80 -3 13 -2 23 2 23
4 -1 32 -29 62 -64 30 -34 75 -78 100 -97 25 -19 53 -41 63 -50 9 -9 30 -22
45 -30 15 -8 29 -17 32 -21 17 -22 215 -102 320 -129 118 -30 334 -32 500 -4
47 8 187 51 236 72 21 9 44 18 49 19 20 4 180 96 201 115 11 10 24 19 29 19 4
0 15 7 24 15 9 8 28 25 42 37 129 111 228 231 295 358 16 30 32 57 37 58 4 2
7 11 7 21 0 9 4 21 9 26 12 14 68 174 74 212 3 18 7 35 10 40 21 35 30 381 13
518 -4 33 -9 80 -12 105 -2 25 -6 52 -9 60 -2 8 -7 33 -11 55 -11 75 -47 213
-88 335 -92 279 -245 563 -445 825 -208 271 -513 558 -842 790 -38 28 -80 58
-91 68 -12 9 -27 17 -35 17 -7 0 -13 4 -13 8 0 4 -14 17 -32 27 -17 11 -46 29
-64 40 -144 90 -203 125 -212 125 -6 0 -12 4 -14 8 -4 10 -145 87 -298 163
-142 70 -173 84 -330 148 -69 29 -133 56 -142 61 -24 13 -19 17 -79 -48z"/>
</g>
</svg>
